<svg width="40" height="41" viewBox="0 0 40 41" fill="none" xmlns="http://www.w3.org/2000/svg">
<path d="M20.0002 3.49188C10.8335 3.49188 3.3335 10.9752 3.3335 20.1919C3.3335 28.5252 9.43349 35.4419 17.4002 36.6919V25.0252H13.1668V20.1919H17.4002V16.5085C17.4002 12.3252 19.8835 10.0252 23.7002 10.0252C25.5168 10.0252 27.4168 10.3419 27.4168 10.3419V14.4585H25.3168C23.2502 14.4585 22.6002 15.7419 22.6002 17.0585V20.1919H27.2335L26.4835 25.0252H22.6002V36.6919C26.5276 36.0716 30.1038 34.0677 32.6834 31.042C35.2629 28.0162 36.6757 24.168 36.6668 20.1919C36.6668 10.9752 29.1668 3.49188 20.0002 3.49188Z" fill="#2C2C2C"/>
</svg>
