<svg width="40" height="41" viewBox="0 0 40 41" fill="none" xmlns="http://www.w3.org/2000/svg">
<path d="M20.0002 14.8848C17.133 14.8848 14.7932 17.2247 14.7932 20.0919C14.7932 22.959 17.133 25.2989 20.0002 25.2989C22.8674 25.2989 25.2072 22.959 25.2072 20.0919C25.2072 17.2247 22.8674 14.8848 20.0002 14.8848ZM35.6174 20.0919C35.6174 17.9356 35.6369 15.7989 35.5158 13.6465C35.3947 11.1465 34.8244 8.9278 32.9963 7.09967C31.1642 5.26764 28.9494 4.70124 26.4494 4.58014C24.2932 4.45905 22.1564 4.47858 20.0041 4.47858C17.8478 4.47858 15.7111 4.45905 13.5588 4.58014C11.0588 4.70124 8.84003 5.27155 7.0119 7.09967C5.17987 8.9317 4.61347 11.1465 4.49237 13.6465C4.37128 15.8028 4.39081 17.9395 4.39081 20.0919C4.39081 22.2442 4.37128 24.3848 4.49237 26.5372C4.61347 29.0372 5.18378 31.2559 7.0119 33.084C8.84394 34.9161 11.0588 35.4825 13.5588 35.6036C15.715 35.7247 17.8517 35.7051 20.0041 35.7051C22.1603 35.7051 24.2971 35.7247 26.4494 35.6036C28.9494 35.4825 31.1682 34.9122 32.9963 33.084C34.8283 31.252 35.3947 29.0372 35.5158 26.5372C35.6408 24.3848 35.6174 22.2481 35.6174 20.0919ZM20.0002 28.1036C15.5666 28.1036 11.9885 24.5255 11.9885 20.0919C11.9885 15.6583 15.5666 12.0801 20.0002 12.0801C24.4338 12.0801 28.0119 15.6583 28.0119 20.0919C28.0119 24.5255 24.4338 28.1036 20.0002 28.1036ZM28.34 13.6231C27.3049 13.6231 26.4689 12.7872 26.4689 11.752C26.4689 10.7169 27.3049 9.88092 28.34 9.88092C29.3752 9.88092 30.2111 10.7169 30.2111 11.752C30.2114 11.9978 30.1632 12.2413 30.0693 12.4684C29.9754 12.6956 29.8376 12.902 29.6638 13.0758C29.49 13.2496 29.2836 13.3874 29.0564 13.4813C28.8293 13.5752 28.5858 13.6234 28.34 13.6231Z" fill="#2C2C2C"/>
</svg>
