<svg width="40" height="41" viewBox="0 0 40 41" fill="none" xmlns="http://www.w3.org/2000/svg">
<path d="M31.6667 5.09186C32.5507 5.09186 33.3986 5.44305 34.0237 6.06817C34.6488 6.69329 35 7.54114 35 8.42519V31.7585C35 32.6426 34.6488 33.4904 34.0237 34.1155C33.3986 34.7407 32.5507 35.0919 31.6667 35.0919H8.33333C7.44928 35.0919 6.60143 34.7407 5.97631 34.1155C5.35119 33.4904 5 32.6426 5 31.7585V8.42519C5 7.54114 5.35119 6.69329 5.97631 6.06817C6.60143 5.44305 7.44928 5.09186 8.33333 5.09186H31.6667ZM30.8333 30.9252V22.0919C30.8333 20.6508 30.2609 19.2689 29.2419 18.2499C28.223 17.231 26.841 16.6585 25.4 16.6585C23.9833 16.6585 22.3333 17.5252 21.5333 18.8252V16.9752H16.8833V30.9252H21.5333V22.7085C21.5333 21.4252 22.5667 20.3752 23.85 20.3752C24.4688 20.3752 25.0623 20.621 25.4999 21.0586C25.9375 21.4962 26.1833 22.0897 26.1833 22.7085V30.9252H30.8333ZM11.4667 14.3585C12.2093 14.3585 12.9215 14.0635 13.4466 13.5384C13.9717 13.0133 14.2667 12.3011 14.2667 11.5585C14.2667 10.0085 13.0167 8.74186 11.4667 8.74186C10.7196 8.74186 10.0032 9.03861 9.47498 9.56684C8.94675 10.0951 8.65 10.8115 8.65 11.5585C8.65 13.1085 9.91667 14.3585 11.4667 14.3585ZM13.7833 30.9252V16.9752H9.16667V30.9252H13.7833Z" fill="#2C2C2C"/>
</svg>
