<svg width="33" height="27" viewBox="0 0 33 27" fill="none" xmlns="http://www.w3.org/2000/svg">
<path d="M27.75 21.75C27.75 22.7446 27.3549 23.6984 26.6517 24.4017C25.9484 25.1049 24.9946 25.5 24 25.5C23.0054 25.5 22.0516 25.1049 21.3483 24.4017C20.6451 23.6984 20.25 22.7446 20.25 21.75C20.25 20.7554 20.6451 19.8016 21.3483 19.0983C22.0516 18.3951 23.0054 18 24 18C24.9946 18 25.9484 18.3951 26.6517 19.0983C27.3549 19.8016 27.75 20.7554 27.75 21.75ZM12.75 21.75C12.75 22.7446 12.3549 23.6984 11.6517 24.4017C10.9484 25.1049 9.99456 25.5 9 25.5C8.00544 25.5 7.05161 25.1049 6.34835 24.4017C5.64509 23.6984 5.25 22.7446 5.25 21.75C5.25 20.7554 5.64509 19.8016 6.34835 19.0983C7.05161 18.3951 8.00544 18 9 18C9.99456 18 10.9484 18.3951 11.6517 19.0983C12.3549 19.8016 12.75 20.7554 12.75 21.75Z" stroke="#E11D07" stroke-width="1.8" stroke-linecap="round" stroke-linejoin="round"/>
<path d="M20.25 21.75H12.75M27.75 21.75H28.8945C29.2245 21.75 29.3895 21.75 29.5275 21.732C30.0241 21.6702 30.4859 21.4446 30.8398 21.0908C31.1938 20.7371 31.4198 20.2755 31.482 19.779C31.5 19.6395 31.5 19.4745 31.5 19.1445V15C31.5 12.4141 30.4728 9.93419 28.6443 8.10571C26.8158 6.27723 24.3359 5.25 21.75 5.25M21 18.75V6C21 3.879 21 2.8185 20.34 2.16C19.683 1.5 18.6225 1.5 16.5 1.5H6C3.879 1.5 2.8185 1.5 2.16 2.16C1.5 2.817 1.5 3.8775 1.5 6V18C1.5 19.4025 1.5 20.103 1.8015 20.625C1.99897 20.967 2.28299 21.251 2.625 21.4485C3.147 21.75 3.8475 21.75 5.25 21.75" stroke="#E11D07" stroke-width="1.8" stroke-linecap="round" stroke-linejoin="round"/>
<path d="M12.4905 13.5L14.7195 11.739C15.906 10.8 16.5 10.332 16.5 9.75M16.5 9.75C16.5 9.168 15.906 8.7 14.7195 7.761L12.4905 6M16.5 9.75H6" stroke="#E11D07" stroke-width="1.8" stroke-linecap="round" stroke-linejoin="round"/>
</svg>
