<svg width="43" height="42" viewBox="0 0 43 42" fill="none" xmlns="http://www.w3.org/2000/svg">
<path d="M34.0498 15.75C34.0498 14.1413 33.733 12.5484 33.1173 11.0621C32.5017 9.57589 31.5994 8.22546 30.4619 7.08794C29.3243 5.95042 27.9739 5.0481 26.4877 4.43248C25.0014 3.81686 23.4085 3.5 21.7998 3.5C20.1911 3.5 18.5982 3.81686 17.1119 4.43248C15.6257 5.0481 14.2753 5.95042 13.1377 7.08794C12.0002 8.22546 11.0979 9.57589 10.4823 11.0621C9.86666 12.5484 9.5498 14.1413 9.5498 15.75C9.5498 18.1772 10.2656 20.4347 11.4836 22.3388H11.4696L21.7998 38.5L32.1301 22.3388H32.1178C33.3794 20.3728 34.05 18.0859 34.0498 15.75ZM21.7998 21C20.4074 21 19.0721 20.4469 18.0875 19.4623C17.1029 18.4777 16.5498 17.1424 16.5498 15.75C16.5498 14.3576 17.1029 13.0223 18.0875 12.0377C19.0721 11.0531 20.4074 10.5 21.7998 10.5C23.1922 10.5 24.5275 11.0531 25.5121 12.0377C26.4967 13.0223 27.0498 14.3576 27.0498 15.75C27.0498 17.1424 26.4967 18.4777 25.5121 19.4623C24.5275 20.4469 23.1922 21 21.7998 21Z" fill="white"/>
</svg>
