<svg width="30" height="30" viewBox="0 0 55 34" fill="none" xmlns="http://www.w3.org/2000/svg">
<path d="M20.0645 30.3563H34.9356V3.63529H20.0645V30.3563Z" fill="#FF5F00"/>
<path d="M21.0087 16.9957C21.0087 22.4248 23.558 27.2404 27.4763 30.3563C24.5967 32.6224 20.9616 33.9915 16.9959 33.9915C7.60076 33.9915 0 26.3907 0 16.9957C0 7.60075 7.60076 -7.53422e-06 16.9957 -7.53422e-06C20.9614 -7.53422e-06 24.5965 1.36904 27.4763 3.63531C23.558 6.70396 21.0087 11.5666 21.0087 16.9957Z" fill="#EB001B"/>
<path d="M54.9998 16.9957C54.9998 7.60096 47.399 -8.9904e-06 38.004 -8.9904e-06C34.0384 -8.9904e-06 30.4033 1.36904 27.5234 3.63531C31.4891 6.75106 33.9913 11.5666 33.9913 16.9957C33.9913 22.4248 31.4418 27.2404 27.5234 30.3563C30.403 32.6224 34.0384 33.9915 38.004 33.9915C47.399 33.9915 54.9998 26.3434 54.9998 16.9957Z" fill="#F79E1B"/>
</svg>
