<svg width="29" height="29" viewBox="0 0 29 29" fill="none" xmlns="http://www.w3.org/2000/svg">
<path fill-rule="evenodd" clip-rule="evenodd" d="M12.688 6.04199C12.688 5.56129 12.8789 5.10027 13.2189 4.76036C13.5588 4.42045 14.0198 4.22949 14.5005 4.22949H14.5126C14.9933 4.22949 15.4543 4.42045 15.7942 4.76036C16.1341 5.10027 16.3251 5.56129 16.3251 6.04199V6.05408C16.3251 6.53478 16.1341 6.9958 15.7942 7.33571C15.4543 7.67562 14.9933 7.86658 14.5126 7.86658H14.5005C14.0198 7.86658 13.5588 7.67562 13.2189 7.33571C12.8789 6.9958 12.688 6.53478 12.688 6.05408V6.04199ZM12.688 14.5003C12.688 14.0196 12.8789 13.5586 13.2189 13.2187C13.5588 12.8788 14.0198 12.6878 14.5005 12.6878H14.5126C14.9933 12.6878 15.4543 12.8788 15.7942 13.2187C16.1341 13.5586 16.3251 14.0196 16.3251 14.5003V14.5124C16.3251 14.9931 16.1341 15.4541 15.7942 15.794C15.4543 16.1339 14.9933 16.3249 14.5126 16.3249H14.5005C14.0198 16.3249 13.5588 16.1339 13.2189 15.794C12.8789 15.4541 12.688 14.9931 12.688 14.5124V14.5003ZM14.5005 21.1462C14.0198 21.1462 13.5588 21.3371 13.2189 21.677C12.8789 22.0169 12.688 22.478 12.688 22.9587V22.9707C12.688 23.4514 12.8789 23.9125 13.2189 24.2524C13.5588 24.5923 14.0198 24.7832 14.5005 24.7832H14.5126C14.9933 24.7832 15.4543 24.5923 15.7942 24.2524C16.1341 23.9125 16.3251 23.4514 16.3251 22.9707V22.9587C16.3251 22.478 16.1341 22.0169 15.7942 21.677C15.4543 21.3371 14.9933 21.1462 14.5126 21.1462H14.5005Z" fill="#2C2C2C"/>
</svg>
