<svg width="20" height="24" viewBox="0 0 28 34" fill="none" xmlns="http://www.w3.org/2000/svg">
<g clip-path="url(#clip0_176_44)">
<path d="M23.7528 2.57106C22.2288 0.833968 19.4739 0.0892334 15.9495 0.0892334H5.72072C5.372 0.0891796 5.0347 0.213561 4.7695 0.440005C4.5043 0.666448 4.32861 0.980091 4.27402 1.32451L0.0149586 28.3365C-0.0696977 28.8692 0.342755 29.3515 0.88263 29.3515H7.19751L8.78344 19.2922L8.73422 19.6072C8.84721 18.8962 9.45533 18.3717 10.1755 18.3717H13.1763C19.0714 18.3717 23.6873 15.9773 25.0357 9.05066C25.0757 8.8458 25.1104 8.64641 25.1404 8.45161C24.9702 8.36148 24.9702 8.36148 25.1404 8.45161C25.5419 5.89147 25.1376 4.1488 23.7528 2.57106Z" fill="#27346A"/>
<path d="M11.1998 7.52936C11.3723 7.44702 11.5612 7.40442 11.7524 7.40467H19.7716C20.7212 7.40467 21.6069 7.46647 22.4163 7.59673C22.6427 7.63287 22.8681 7.67599 23.0919 7.72601C23.4091 7.79603 23.7227 7.8817 24.0314 7.98272C24.4293 8.11561 24.7999 8.27037 25.1405 8.45161C25.5419 5.89048 25.1376 4.1488 23.7528 2.57106C22.2279 0.833968 19.4739 0.0892334 15.9495 0.0892334H5.71985C4.99961 0.0892334 4.3869 0.613577 4.27402 1.32451L0.0149592 28.3355C-0.0696971 28.8691 0.342756 29.3508 0.881756 29.3508H7.19751L10.4878 8.4853C10.5202 8.28021 10.6019 8.08607 10.7259 7.91955C10.8499 7.75303 11.0125 7.61913 11.1998 7.52936Z" fill="#27346A"/>
<path d="M25.0359 9.05071C23.6875 15.9763 19.0717 18.3718 13.1765 18.3718H10.1748C9.45469 18.3718 8.84645 18.8962 8.73456 19.6073L6.76155 32.1148C6.68783 32.581 7.04833 33.0034 7.51995 33.0034H12.8432C13.1482 33.0033 13.4431 32.8944 13.6749 32.6963C13.9067 32.4983 14.0603 32.224 14.1079 31.9228L14.1598 31.6515L15.1631 25.2929L15.2277 24.9415C15.2754 24.6403 15.4289 24.366 15.6607 24.1679C15.8925 23.9698 16.1874 23.861 16.4923 23.8608H17.289C22.4457 23.8608 26.4835 21.7659 27.6634 15.7069C28.156 13.1749 27.9011 11.0609 26.5982 9.57603C26.2031 9.12628 25.7123 8.75485 25.1406 8.45166C25.1096 8.64744 25.0761 8.84585 25.0359 9.05071Z" fill="#2790C3"/>
<path d="M23.7295 7.88909C23.5192 7.8277 23.307 7.77335 23.0931 7.72612C22.8692 7.67689 22.6439 7.63407 22.4175 7.59771C21.6073 7.46657 20.7222 7.40466 19.7717 7.40466H11.7536C11.5622 7.40434 11.3733 7.44731 11.2009 7.53034C11.0134 7.61979 10.8506 7.7536 10.7265 7.92017C10.6025 8.08674 10.5209 8.28106 10.4889 8.48627L8.78457 19.2923L8.73535 19.6073C8.84746 18.8963 9.45559 18.3718 10.1758 18.3718H13.1775C19.0726 18.3718 23.6884 15.9774 25.0368 9.05076C25.077 8.8459 25.1106 8.64738 25.1416 8.45171C24.8002 8.27161 24.4305 8.1156 24.0325 7.9837C23.9321 7.9504 23.8311 7.91886 23.7296 7.88909" fill="#1F264F"/>
</g>
<defs>
<clipPath id="clip0_176_44">
<rect width="28" height="33.0312" fill="white"/>
</clipPath>
</defs>
</svg>
