<svg width="32" height="32" viewBox="0 0 32 32" fill="none" xmlns="http://www.w3.org/2000/svg">
<path d="M28.6266 15.4399L20.0666 6.89324C19.8485 6.67392 19.561 6.53723 19.2532 6.50657L6.78657 5.33324C6.59128 5.31528 6.39444 5.34062 6.21006 5.40746C6.02569 5.47429 5.85832 5.58098 5.71991 5.71991C5.58098 5.85832 5.47429 6.02569 5.40746 6.21006C5.34062 6.39444 5.31528 6.59128 5.33324 6.78657L6.50657 19.2532C6.53723 19.561 6.67392 19.8485 6.89324 20.0666L15.4399 28.6266C15.8983 29.0787 16.5161 29.3325 17.1599 29.3332C17.7997 29.3319 18.4131 29.0779 18.8666 28.6266L28.6266 18.8666C29.0801 18.4117 29.3348 17.7956 29.3348 17.1532C29.3348 16.5109 29.0801 15.8948 28.6266 15.4399ZM15.4132 15.4399C15.1336 15.7199 14.7773 15.9106 14.3892 15.988C14.0012 16.0653 13.599 16.0259 13.2334 15.8746C12.8678 15.7233 12.5553 15.4669 12.3354 15.138C12.1155 14.809 11.9981 14.4222 11.9981 14.0266C11.9981 13.6309 12.1155 13.2441 12.3354 12.9152C12.5553 12.5862 12.8678 12.3299 13.2334 12.1786C13.599 12.0273 14.0012 11.9878 14.3892 12.0652C14.7773 12.1426 15.1336 12.3333 15.4132 12.6132C15.7829 12.9854 15.9904 13.4887 15.9904 14.0132C15.9904 14.5378 15.7829 15.0411 15.4132 15.4132V15.4399Z" fill="#E11D07"/>
</svg>
