<svg width="26" height="25" viewBox="0 0 26 25" fill="none" xmlns="http://www.w3.org/2000/svg">
<path fill-rule="evenodd" clip-rule="evenodd" d="M11.6493 2.08374C10.2374 2.08386 8.84605 2.42162 7.59125 3.06884C6.33645 3.71606 5.25462 4.65397 4.43602 5.80432C3.61742 6.95467 3.08578 8.2841 2.88547 9.6817C2.68515 11.0793 2.82197 12.5045 3.2845 13.8385C3.74703 15.1725 4.52186 16.3765 5.54435 17.3501C6.56684 18.3237 7.80734 19.0387 9.16235 19.4354C10.5174 19.8321 11.9476 19.899 13.3337 19.6305C14.7198 19.3621 16.0217 18.766 17.1306 17.8921L20.9347 21.6962C21.1312 21.886 21.3943 21.991 21.6674 21.9886C21.9406 21.9862 22.2018 21.8767 22.395 21.6836C22.5881 21.4904 22.6976 21.2292 22.7 20.956C22.7024 20.6829 22.5974 20.4198 22.4076 20.2233L18.6035 16.4192C19.6326 15.1136 20.2734 13.5446 20.4525 11.8918C20.6316 10.239 20.3418 8.56918 19.6162 7.07342C18.8906 5.57766 17.7586 4.3164 16.3496 3.43398C14.9407 2.55156 13.3118 2.08363 11.6493 2.08374ZM4.87848 10.9379C4.87848 9.14217 5.59183 7.41998 6.86161 6.1502C8.13139 4.88043 9.85358 4.16707 11.6493 4.16707C13.445 4.16707 15.1672 4.88043 16.437 6.1502C17.7068 7.41998 18.4201 9.14217 18.4201 10.9379C18.4201 12.7336 17.7068 14.4558 16.437 15.7256C15.1672 16.9954 13.445 17.7087 11.6493 17.7087C9.85358 17.7087 8.13139 16.9954 6.86161 15.7256C5.59183 14.4558 4.87848 12.7336 4.87848 10.9379Z" fill="#2C2C2C"/>
</svg>
