<svg width="27" height="27" viewBox="0 0 27 27" fill="none" xmlns="http://www.w3.org/2000/svg">
<path d="M1.6875 3.375H3.65625L4.5 6.75M4.5 6.75L7.3125 18H21.9375L24.75 6.75H4.5Z" stroke="#E11D07" stroke-width="2.25" stroke-linecap="round" stroke-linejoin="round"/>
<path d="M7.31201 23.625C8.24399 23.625 8.99951 22.8695 8.99951 21.9375C8.99951 21.0055 8.24399 20.25 7.31201 20.25C6.38003 20.25 5.62451 21.0055 5.62451 21.9375C5.62451 22.8695 6.38003 23.625 7.31201 23.625Z" stroke="#E11D07" stroke-width="2.25" stroke-linecap="round" stroke-linejoin="round"/>
<path d="M21.9375 23.625C22.8695 23.625 23.625 22.8695 23.625 21.9375C23.625 21.0055 22.8695 20.25 21.9375 20.25C21.0055 20.25 20.25 21.0055 20.25 21.9375C20.25 22.8695 21.0055 23.625 21.9375 23.625Z" stroke="#E11D07" stroke-width="2.25" stroke-linecap="round" stroke-linejoin="round"/>
</svg>
