<svg width="198" height="43" viewBox="0 0 198 43" fill="none" xmlns="http://www.w3.org/2000/svg">
<path d="M18.385 3.11529C19.947 1.55319 22.4797 1.5532 24.0418 3.11529L35.3555 14.429C39.2608 18.3342 39.2608 24.6659 35.3555 28.5711L32.5271 31.3996C26.2787 37.6479 16.1481 37.6479 9.89967 31.3996L7.07124 28.5711C3.166 24.6659 3.166 18.3342 7.07124 14.429L18.385 3.11529Z" fill="#E11D07"/>
<path d="M64.4823 11.76V31.5H58.9943V11.76H64.4823ZM79.7316 19.516V24.08H67.0476V19.516H79.7316ZM106.839 11.76V31.5H101.351V20.608L97.6271 31.5H93.0351L89.2831 20.524V31.5H83.7951V11.76H90.4311L95.3871 24.584L100.231 11.76H106.839ZM126.035 15.792V31.5H120.519V29.26C120.052 29.9693 119.408 30.548 118.587 30.996C117.766 31.4253 116.823 31.64 115.759 31.64C113.93 31.64 112.483 31.0427 111.419 29.848C110.374 28.6347 109.851 26.992 109.851 24.92V15.792H115.311V24.22C115.311 25.116 115.544 25.8253 116.011 26.348C116.496 26.852 117.131 27.104 117.915 27.104C118.718 27.104 119.352 26.852 119.819 26.348C120.286 25.8253 120.519 25.116 120.519 24.22V15.792H126.035ZM135.85 31.696C134.432 31.696 133.162 31.4627 132.042 30.996C130.941 30.5107 130.064 29.8573 129.41 29.036C128.776 28.196 128.421 27.2533 128.346 26.208H133.666C133.741 26.712 133.974 27.104 134.366 27.384C134.758 27.664 135.244 27.804 135.822 27.804C136.27 27.804 136.625 27.7107 136.886 27.524C137.148 27.3373 137.278 27.0947 137.278 26.796C137.278 26.404 137.064 26.1147 136.634 25.928C136.205 25.7413 135.496 25.536 134.506 25.312C133.386 25.088 132.453 24.836 131.706 24.556C130.96 24.276 130.306 23.8187 129.746 23.184C129.205 22.5493 128.934 21.6907 128.934 20.608C128.934 19.6747 129.186 18.8347 129.69 18.088C130.194 17.3227 130.932 16.716 131.902 16.268C132.892 15.82 134.077 15.596 135.458 15.596C137.512 15.596 139.126 16.1 140.302 17.108C141.478 18.116 142.16 19.4413 142.346 21.084H137.39C137.297 20.58 137.073 20.1973 136.718 19.936C136.382 19.656 135.925 19.516 135.346 19.516C134.898 19.516 134.553 19.6 134.31 19.768C134.086 19.936 133.974 20.1693 133.974 20.468C133.974 20.8413 134.189 21.1307 134.618 21.336C135.048 21.5227 135.738 21.7187 136.69 21.924C137.829 22.1667 138.772 22.4373 139.518 22.736C140.284 23.0347 140.946 23.52 141.506 24.192C142.085 24.8453 142.374 25.7413 142.374 26.88C142.374 27.7947 142.104 28.616 141.562 29.344C141.04 30.072 140.284 30.6507 139.294 31.08C138.324 31.4907 137.176 31.696 135.85 31.696ZM147.844 14.336C146.874 14.336 146.09 14.0747 145.492 13.552C144.914 13.0107 144.624 12.3387 144.624 11.536C144.624 10.7147 144.914 10.0333 145.492 9.492C146.09 8.95067 146.874 8.68 147.844 8.68C148.796 8.68 149.562 8.95067 150.14 9.492C150.738 10.0333 151.036 10.7147 151.036 11.536C151.036 12.3387 150.738 13.0107 150.14 13.552C149.562 14.0747 148.796 14.336 147.844 14.336ZM150.56 15.792V31.5H145.072V15.792H150.56ZM152.79 23.632C152.79 22.008 153.126 20.5893 153.798 19.376C154.47 18.1627 155.403 17.2293 156.598 16.576C157.811 15.9227 159.192 15.596 160.742 15.596C162.739 15.596 164.419 16.1467 165.782 17.248C167.144 18.3307 168.022 19.852 168.414 21.812H162.59C162.254 20.7853 161.6 20.272 160.63 20.272C159.939 20.272 159.388 20.5613 158.978 21.14C158.586 21.7 158.39 22.5307 158.39 23.632C158.39 24.7333 158.586 25.5733 158.978 26.152C159.388 26.7307 159.939 27.02 160.63 27.02C161.619 27.02 162.272 26.5067 162.59 25.48H168.414C168.022 27.4213 167.144 28.9427 165.782 30.044C164.419 31.1453 162.739 31.696 160.742 31.696C159.192 31.696 157.811 31.3693 156.598 30.716C155.403 30.0627 154.47 29.1293 153.798 27.916C153.126 26.7027 152.79 25.2747 152.79 23.632ZM169.797 23.632C169.797 22.008 170.087 20.5893 170.665 19.376C171.263 18.1627 172.065 17.2293 173.073 16.576C174.1 15.9227 175.239 15.596 176.489 15.596C177.572 15.596 178.505 15.8107 179.289 16.24C180.073 16.6693 180.68 17.248 181.109 17.976V15.792H186.597V31.5H181.109V29.316C180.68 30.044 180.064 30.6227 179.261 31.052C178.477 31.4813 177.553 31.696 176.489 31.696C175.239 31.696 174.1 31.3693 173.073 30.716C172.065 30.0627 171.263 29.1293 170.665 27.916C170.087 26.684 169.797 25.256 169.797 23.632ZM181.109 23.632C181.109 22.624 180.829 21.8307 180.269 21.252C179.728 20.6733 179.056 20.384 178.253 20.384C177.432 20.384 176.751 20.6733 176.209 21.252C175.668 21.812 175.397 22.6053 175.397 23.632C175.397 24.64 175.668 25.4427 176.209 26.04C176.751 26.6187 177.432 26.908 178.253 26.908C179.056 26.908 179.728 26.6187 180.269 26.04C180.829 25.4613 181.109 24.6587 181.109 23.632ZM195.213 10.78V31.5H189.725V10.78H195.213Z" fill="#2C2C2C"/>
</svg>
