<svg width="110" height="43" viewBox="0 0 110 43" fill="none" xmlns="http://www.w3.org/2000/svg">
<path d="M18.385 2.82843C19.947 1.26633 22.4797 1.26633 24.0418 2.82843L35.3555 14.1421C39.2608 18.0474 39.2608 24.379 35.3555 28.2843L32.5271 31.1127C26.2787 37.3611 16.1481 37.3611 9.89967 31.1127L7.07124 28.2843C3.166 24.379 3.166 18.0474 7.07124 14.1421L18.385 2.82843Z" fill="#E11D07"/>
<path d="M59.4823 11.4731V31.2131H53.9943V11.4731H59.4823ZM74.7316 19.2291V23.7931H62.0476V19.2291H74.7316Z" fill="#2C2C2C"/>
<rect x="77.4263" y="6.21313" width="32" height="30" rx="10" fill="#E11D07"/>
<path d="M102.006 14.1131V28.2131H98.0863V20.4331L95.4263 28.2131H92.1463L89.4663 20.3731V28.2131H85.5463V14.1131H90.2863L93.8263 23.2731L97.2863 14.1131H102.006Z" fill="black"/>
</svg>
