<svg width="93" height="43" viewBox="0 0 93 43" fill="none" xmlns="http://www.w3.org/2000/svg">
<path d="M13.1255 11.3745C14.3862 10.1138 16.4302 10.1138 17.6909 11.3745L25.1096 18.7932C28.2613 21.9449 28.2613 27.0549 25.1096 30.2066L24.5389 30.7773C19.4962 35.8201 11.3202 35.8201 6.27747 30.7773L5.7068 30.2066C2.55507 27.0549 2.55507 21.9449 5.7068 18.7932L13.1255 11.3745Z" fill="#E11D07"/>
<path d="M42.8724 11.76V31.5H37.3844V11.76H42.8724ZM58.1217 19.516V24.08H45.4377V19.516H58.1217Z" fill="#2C2C2C"/>
<rect x="60.8164" y="6.5" width="32" height="30" rx="10" fill="#E11D07"/>
<path d="M85.3964 14.4V28.5H81.4764V20.72L78.8164 28.5H75.5364L72.8564 20.66V28.5H68.9364V14.4H73.6764L77.2164 23.56L80.6764 14.4H85.3964Z" fill="black"/>
</svg>
